<svg width="21" height="45" viewBox="0 0 21 45" fill="none" xmlns="http://www.w3.org/2000/svg">
<path d="M6.49979 4.5C5.49976 6 4.99981 8.5 7.99979 11C9.99977 8 7.99984 5.5 6.49979 4.5Z" fill="#15B078"/>
<path d="M6.49979 4.5C5.49976 6 4.99981 8.5 7.99979 11C9.99977 8 7.99984 5.5 6.49979 4.5Z" fill="url(#paint0_radial_13556_23363)" fill-opacity="0.47"/>
<path d="M6.49979 4.5C5.49976 6 4.99981 8.5 7.99979 11C9.99977 8 7.99984 5.5 6.49979 4.5Z" stroke="url(#paint1_linear_13556_23363)" stroke-width="0.25"/>
<path d="M2.72091 11.8545C2.3366 13.6158 2.78254 16.126 6.4875 17.3602C7.25605 13.8375 4.4823 12.2387 2.72091 11.8545Z" fill="#15B078"/>
<path d="M2.72091 11.8545C2.3366 13.6158 2.78254 16.126 6.4875 17.3602C7.25605 13.8375 4.4823 12.2387 2.72091 11.8545Z" fill="url(#paint2_radial_13556_23363)" fill-opacity="0.47"/>
<path d="M2.72091 11.8545C2.3366 13.6158 2.78254 16.126 6.4875 17.3602C7.25605 13.8375 4.4823 12.2387 2.72091 11.8545Z" stroke="url(#paint3_linear_13556_23363)" stroke-width="0.25"/>
<path d="M1.72091 19.8545C1.3366 21.6158 1.78254 24.126 5.4875 25.3602C6.25605 21.8375 3.4823 20.2387 1.72091 19.8545Z" fill="#15B078"/>
<path d="M1.72091 19.8545C1.3366 21.6158 1.78254 24.126 5.4875 25.3602C6.25605 21.8375 3.4823 20.2387 1.72091 19.8545Z" fill="url(#paint4_radial_13556_23363)" fill-opacity="0.47"/>
<path d="M1.72091 19.8545C1.3366 21.6158 1.78254 24.126 5.4875 25.3602C6.25605 21.8375 3.4823 20.2387 1.72091 19.8545Z" stroke="url(#paint5_linear_13556_23363)" stroke-width="0.25"/>
<path d="M2.61286 27.4332C2.73779 29.2316 3.86964 31.5161 7.77202 31.662C7.52208 28.0652 4.41134 27.3082 2.61286 27.4332Z" fill="#15B078"/>
<path d="M2.61286 27.4332C2.73779 29.2316 3.86964 31.5161 7.77202 31.662C7.52208 28.0652 4.41134 27.3082 2.61286 27.4332Z" fill="url(#paint6_radial_13556_23363)" fill-opacity="0.47"/>
<path d="M2.61286 27.4332C2.73779 29.2316 3.86964 31.5161 7.77202 31.662C7.52208 28.0652 4.41134 27.3082 2.61286 27.4332Z" stroke="url(#paint7_linear_13556_23363)" stroke-width="0.25"/>
<path d="M5.45049 34.9016C6.08851 36.5877 7.8308 38.449 11.6096 37.4639C10.3335 34.0917 7.13661 34.2635 5.45049 34.9016Z" fill="#15B078"/>
<path d="M5.45049 34.9016C6.08851 36.5877 7.8308 38.449 11.6096 37.4639C10.3335 34.0917 7.13661 34.2635 5.45049 34.9016Z" fill="url(#paint8_radial_13556_23363)" fill-opacity="0.47"/>
<path d="M5.45049 34.9016C6.08851 36.5877 7.8308 38.449 11.6096 37.4639C10.3335 34.0917 7.13661 34.2635 5.45049 34.9016Z" stroke="url(#paint9_linear_13556_23363)" stroke-width="0.25"/>
<path d="M15.8423 9.62485C14.3926 8.55318 11.9198 7.93247 9.27715 10.8075C12.1765 12.9508 14.7707 11.0746 15.8423 9.62485Z" fill="#15B078"/>
<path d="M15.8423 9.62485C14.3926 8.55318 11.9198 7.93247 9.27715 10.8075C12.1765 12.9508 14.7707 11.0746 15.8423 9.62485Z" fill="url(#paint10_radial_13556_23363)" fill-opacity="0.47"/>
<path d="M15.8423 9.62485C14.3926 8.55318 11.9198 7.93247 9.27715 10.8075C12.1765 12.9508 14.7707 11.0746 15.8423 9.62485Z" stroke="url(#paint11_linear_13556_23363)" stroke-width="0.25"/>
<path d="M13.3964 13.7318C11.652 13.2764 9.12585 13.6203 7.74261 17.2722C11.2313 18.1828 12.9411 15.4761 13.3964 13.7318Z" fill="#15B078"/>
<path d="M13.3964 13.7318C11.652 13.2764 9.12585 13.6203 7.74261 17.2722C11.2313 18.1828 12.9411 15.4761 13.3964 13.7318Z" fill="url(#paint12_radial_13556_23363)" fill-opacity="0.47"/>
<path d="M13.3964 13.7318C11.652 13.2764 9.12585 13.6203 7.74261 17.2722C11.2313 18.1828 12.9411 15.4761 13.3964 13.7318Z" stroke="url(#paint13_linear_13556_23363)" stroke-width="0.25"/>
<path d="M11.4292 19.5865C9.64005 19.808 7.41978 21.0612 7.48406 24.9657C11.0623 24.5226 11.6508 21.3757 11.4292 19.5865Z" fill="#15B078"/>
<path d="M11.4292 19.5865C9.64005 19.808 7.41978 21.0612 7.48406 24.9657C11.0623 24.5226 11.6508 21.3757 11.4292 19.5865Z" fill="url(#paint14_radial_13556_23363)" fill-opacity="0.47"/>
<path d="M11.4292 19.5865C9.64005 19.808 7.41978 21.0612 7.48406 24.9657C11.0623 24.5226 11.6508 21.3757 11.4292 19.5865Z" stroke="url(#paint15_linear_13556_23363)" stroke-width="0.25"/>
<path d="M12.2509 24.4411C10.6887 24.9326 8.91066 26.4167 9.60891 29.8947C12.7332 28.9116 12.7425 26.0033 12.2509 24.4411Z" fill="#15B078"/>
<path d="M12.2509 24.4411C10.6887 24.9326 8.91066 26.4167 9.60891 29.8947C12.7332 28.9116 12.7425 26.0033 12.2509 24.4411Z" fill="url(#paint16_radial_13556_23363)" fill-opacity="0.47"/>
<path d="M12.2509 24.4411C10.6887 24.9326 8.91066 26.4167 9.60891 29.8947C12.7332 28.9116 12.7425 26.0033 12.2509 24.4411Z" stroke="url(#paint17_linear_13556_23363)" stroke-width="0.25"/>
<path d="M13.1943 30.1966C11.991 31.3075 11.0158 33.4081 13.1308 36.2561C15.5373 34.0343 14.3053 31.3998 13.1943 30.1966Z" fill="#15B078"/>
<path d="M13.1943 30.1966C11.991 31.3075 11.0158 33.4081 13.1308 36.2561C15.5373 34.0343 14.3053 31.3998 13.1943 30.1966Z" fill="url(#paint18_radial_13556_23363)" fill-opacity="0.47"/>
<path d="M13.1943 30.1966C11.991 31.3075 11.0158 33.4081 13.1308 36.2561C15.5373 34.0343 14.3053 31.3998 13.1943 30.1966Z" stroke="url(#paint19_linear_13556_23363)" stroke-width="0.25"/>
<path d="M16.6924 34.3728C16.0369 35.8736 15.9878 38.1891 19.0689 39.9473C20.3799 36.9458 18.1932 35.0283 16.6924 34.3728Z" fill="#15B078"/>
<path d="M16.6924 34.3728C16.0369 35.8736 15.9878 38.1891 19.0689 39.9473C20.3799 36.9458 18.1932 35.0283 16.6924 34.3728Z" fill="url(#paint20_radial_13556_23363)" fill-opacity="0.47"/>
<path d="M16.6924 34.3728C16.0369 35.8736 15.9878 38.1891 19.0689 39.9473C20.3799 36.9458 18.1932 35.0283 16.6924 34.3728Z" stroke="url(#paint21_linear_13556_23363)" stroke-width="0.25"/>
<path d="M11.2566 40.7397C12.1939 42.0827 14.1427 43.334 17.2514 41.6252C15.3768 38.9394 12.5995 39.8024 11.2566 40.7397Z" fill="#15B078"/>
<path d="M11.2566 40.7397C12.1939 42.0827 14.1427 43.334 17.2514 41.6252C15.3768 38.9394 12.5995 39.8024 11.2566 40.7397Z" fill="url(#paint22_radial_13556_23363)" fill-opacity="0.47"/>
<path d="M11.2566 40.7397C12.1939 42.0827 14.1427 43.334 17.2514 41.6252C15.3768 38.9394 12.5995 39.8024 11.2566 40.7397Z" stroke="url(#paint23_linear_13556_23363)" stroke-width="0.25"/>
<path d="M14.6211 1.61318C12.8225 1.73689 10.5373 2.86718 10.3887 6.76946C13.9858 6.52197 14.7449 3.41174 14.6211 1.61318Z" fill="#15B078"/>
<path d="M14.6211 1.61318C12.8225 1.73689 10.5373 2.86718 10.3887 6.76946C13.9858 6.52197 14.7449 3.41174 14.6211 1.61318Z" fill="url(#paint24_radial_13556_23363)" fill-opacity="0.47"/>
<path d="M14.6211 1.61318C12.8225 1.73689 10.5373 2.86718 10.3887 6.76946C13.9858 6.52197 14.7449 3.41174 14.6211 1.61318Z" stroke="url(#paint25_linear_13556_23363)" stroke-width="0.25"/>
<defs>
<radialGradient id="paint0_radial_13556_23363" cx="0" cy="0" r="1" gradientUnits="userSpaceOnUse" gradientTransform="translate(6.99976 7) rotate(85.9433) scale(4.01005 1.92218)">
<stop stop-color="#00FCA1"/>
<stop offset="1" stop-color="#00AF70"/>
</radialGradient>
<linearGradient id="paint1_linear_13556_23363" x1="6.49976" y1="4.5" x2="7.99976" y2="11" gradientUnits="userSpaceOnUse">
<stop stop-color="#185440"/>
<stop offset="1" stop-color="#35BA8E"/>
</linearGradient>
<radialGradient id="paint2_radial_13556_23363" cx="0" cy="0" r="1" gradientUnits="userSpaceOnUse" gradientTransform="translate(4.09794 14.0001) rotate(64.5609) scale(4.01005 1.92218)">
<stop stop-color="#00FCA1"/>
<stop offset="1" stop-color="#00AF70"/>
</radialGradient>
<linearGradient id="paint3_linear_13556_23363" x1="2.72088" y1="11.8545" x2="6.48747" y2="17.3602" gradientUnits="userSpaceOnUse">
<stop stop-color="#185440"/>
<stop offset="1" stop-color="#35BA8E"/>
</linearGradient>
<radialGradient id="paint4_radial_13556_23363" cx="0" cy="0" r="1" gradientUnits="userSpaceOnUse" gradientTransform="translate(3.09794 22.0001) rotate(64.5609) scale(4.01005 1.92218)">
<stop stop-color="#00FCA1"/>
<stop offset="1" stop-color="#00AF70"/>
</radialGradient>
<linearGradient id="paint5_linear_13556_23363" x1="1.72088" y1="19.8545" x2="5.48747" y2="25.3602" gradientUnits="userSpaceOnUse">
<stop stop-color="#185440"/>
<stop offset="1" stop-color="#35BA8E"/>
</linearGradient>
<radialGradient id="paint6_radial_13556_23363" cx="0" cy="0" r="1" gradientUnits="userSpaceOnUse" gradientTransform="translate(4.53623 29.1067) rotate(48.2785) scale(4.01005 1.92218)">
<stop stop-color="#00FCA1"/>
<stop offset="1" stop-color="#00AF70"/>
</radialGradient>
<linearGradient id="paint7_linear_13556_23363" x1="2.61283" y1="27.4332" x2="7.77199" y2="31.662" gradientUnits="userSpaceOnUse">
<stop stop-color="#185440"/>
<stop offset="1" stop-color="#35BA8E"/>
</linearGradient>
<radialGradient id="paint8_radial_13556_23363" cx="0" cy="0" r="1" gradientUnits="userSpaceOnUse" gradientTransform="translate(7.7746 35.9497) rotate(31.526) scale(4.01005 1.92218)">
<stop stop-color="#00FCA1"/>
<stop offset="1" stop-color="#00AF70"/>
</radialGradient>
<linearGradient id="paint9_linear_13556_23363" x1="5.45047" y1="34.9016" x2="11.6096" y2="37.4639" gradientUnits="userSpaceOnUse">
<stop stop-color="#185440"/>
<stop offset="1" stop-color="#35BA8E"/>
</linearGradient>
<radialGradient id="paint10_radial_13556_23363" cx="0" cy="0" r="1" gradientUnits="userSpaceOnUse" gradientTransform="translate(13.321 10.0029) rotate(178.726) scale(4.01005 1.92218)">
<stop stop-color="#00FCA1"/>
<stop offset="1" stop-color="#00AF70"/>
</radialGradient>
<linearGradient id="paint11_linear_13556_23363" x1="15.8423" y1="9.62482" x2="9.27715" y2="10.8075" gradientUnits="userSpaceOnUse">
<stop stop-color="#185440"/>
<stop offset="1" stop-color="#35BA8E"/>
</linearGradient>
<radialGradient id="paint12_radial_13556_23363" cx="0" cy="0" r="1" gradientUnits="userSpaceOnUse" gradientTransform="translate(11.1967 15.0207) rotate(156.883) scale(4.01005 1.92218)">
<stop stop-color="#00FCA1"/>
<stop offset="1" stop-color="#00AF70"/>
</radialGradient>
<linearGradient id="paint13_linear_13556_23363" x1="13.3964" y1="13.7317" x2="7.7426" y2="17.2722" gradientUnits="userSpaceOnUse">
<stop stop-color="#185440"/>
<stop offset="1" stop-color="#35BA8E"/>
</linearGradient>
<radialGradient id="paint14_radial_13556_23363" cx="0" cy="0" r="1" gradientUnits="userSpaceOnUse" gradientTransform="translate(9.8616 21.5971) rotate(135.194) scale(4.01005 1.92218)">
<stop stop-color="#00FCA1"/>
<stop offset="1" stop-color="#00AF70"/>
</radialGradient>
<linearGradient id="paint15_linear_13556_23363" x1="11.4292" y1="19.5865" x2="7.48404" y2="24.9657" gradientUnits="userSpaceOnUse">
<stop stop-color="#185440"/>
<stop offset="1" stop-color="#35BA8E"/>
</linearGradient>
<radialGradient id="paint16_radial_13556_23363" cx="0" cy="0" r="1" gradientUnits="userSpaceOnUse" gradientTransform="translate(11.1803 26.4948) rotate(124.786) scale(3.64278 1.74613)">
<stop stop-color="#00FCA1"/>
<stop offset="1" stop-color="#00AF70"/>
</radialGradient>
<linearGradient id="paint17_linear_13556_23363" x1="12.2509" y1="24.4411" x2="9.60888" y2="29.8947" gradientUnits="userSpaceOnUse">
<stop stop-color="#185440"/>
<stop offset="1" stop-color="#35BA8E"/>
</linearGradient>
<radialGradient id="paint18_radial_13556_23363" cx="0" cy="0" r="1" gradientUnits="userSpaceOnUse" gradientTransform="translate(13.1019 32.5107) rotate(99.5387) scale(3.64278 1.74613)">
<stop stop-color="#00FCA1"/>
<stop offset="1" stop-color="#00AF70"/>
</radialGradient>
<linearGradient id="paint19_linear_13556_23363" x1="13.1943" y1="30.1966" x2="13.1308" y2="36.2561" gradientUnits="userSpaceOnUse">
<stop stop-color="#185440"/>
<stop offset="1" stop-color="#35BA8E"/>
</linearGradient>
<radialGradient id="paint20_radial_13556_23363" cx="0" cy="0" r="1" gradientUnits="userSpaceOnUse" gradientTransform="translate(17.5376 36.5291) rotate(75.8486) scale(3.64278 1.74613)">
<stop stop-color="#00FCA1"/>
<stop offset="1" stop-color="#00AF70"/>
</radialGradient>
<linearGradient id="paint21_linear_13556_23363" x1="16.6924" y1="34.3728" x2="19.0689" y2="39.9473" gradientUnits="userSpaceOnUse">
<stop stop-color="#185440"/>
<stop offset="1" stop-color="#35BA8E"/>
</linearGradient>
<radialGradient id="paint22_radial_13556_23363" cx="0" cy="0" r="1" gradientUnits="userSpaceOnUse" gradientTransform="translate(13.5368 41.1454) rotate(17.3403) scale(3.64278 1.74613)">
<stop stop-color="#00FCA1"/>
<stop offset="1" stop-color="#00AF70"/>
</radialGradient>
<linearGradient id="paint23_linear_13556_23363" x1="11.2566" y1="40.7397" x2="17.2514" y2="41.6252" gradientUnits="userSpaceOnUse">
<stop stop-color="#185440"/>
<stop offset="1" stop-color="#35BA8E"/>
</linearGradient>
<radialGradient id="paint24_radial_13556_23363" cx="0" cy="0" r="1" gradientUnits="userSpaceOnUse" gradientTransform="translate(12.9463 3.53541) rotate(138.318) scale(4.01005 1.92218)">
<stop stop-color="#00FCA1"/>
<stop offset="1" stop-color="#00AF70"/>
</radialGradient>
<linearGradient id="paint25_linear_13556_23363" x1="14.6211" y1="1.61316" x2="10.3887" y2="6.76943" gradientUnits="userSpaceOnUse">
<stop stop-color="#185440"/>
<stop offset="1" stop-color="#35BA8E"/>
</linearGradient>
</defs>
</svg>
