<svg width="11" height="23" viewBox="0 0 11 23" fill="none" xmlns="http://www.w3.org/2000/svg">
<path d="M3.90579 18.3956C4.53688 18.3225 5.40905 18.5014 6.02018 18.6965C7.29488 19.1032 8.30791 19.8883 9.07544 20.9751C9.24725 21.2185 9.65383 22.0014 9.79197 22.2812C9.11478 22.5339 8.504 22.6475 7.78483 22.6723C6.91495 22.7279 5.8799 22.4955 5.09843 22.1117C4.6477 21.8902 4.21732 21.7095 3.87083 21.3316C3.74106 21.2127 3.54166 21.1103 3.42099 20.9873C2.78224 20.3369 2.37864 19.6276 1.95508 18.824C2.57043 18.5132 3.2331 18.4438 3.90579 18.3956Z" fill="#15B078"/>
<path d="M3.90579 18.3956C4.53688 18.3225 5.40905 18.5014 6.02018 18.6965C7.29488 19.1032 8.30791 19.8883 9.07544 20.9751C9.24725 21.2185 9.65383 22.0014 9.79197 22.2812C9.11478 22.5339 8.504 22.6475 7.78483 22.6723C6.91495 22.7279 5.8799 22.4955 5.09843 22.1117C4.6477 21.8902 4.21732 21.7095 3.87083 21.3316C3.74106 21.2127 3.54166 21.1103 3.42099 20.9873C2.78224 20.3369 2.37864 19.6276 1.95508 18.824C2.57043 18.5132 3.2331 18.4438 3.90579 18.3956Z" fill="url(#paint0_radial_944_20025)" fill-opacity="0.47"/>
<path d="M3.90579 18.3956C4.53688 18.3225 5.40905 18.5014 6.02018 18.6965C7.29488 19.1032 8.30791 19.8883 9.07544 20.9751C9.24725 21.2185 9.65383 22.0014 9.79197 22.2812C9.11478 22.5339 8.504 22.6475 7.78483 22.6723C6.91495 22.7279 5.8799 22.4955 5.09843 22.1117C4.6477 21.8902 4.21732 21.7095 3.87083 21.3316C3.74106 21.2127 3.54166 21.1103 3.42099 20.9873C2.78224 20.3369 2.37864 19.6276 1.95508 18.824C2.57043 18.5132 3.2331 18.4438 3.90579 18.3956Z" stroke="url(#paint1_linear_944_20025)" stroke-width="0.5"/>
<path d="M1.14299 12.2411C2.67945 12.1045 4.51192 12.9426 5.46347 14.1337C5.54299 14.2331 5.64422 14.3284 5.71895 14.4295C6.2091 15.0921 6.45789 15.8221 6.68401 16.5934C6.46824 16.5925 6.13145 16.6356 5.9066 16.6588C4.80235 16.7687 3.52646 16.3944 2.60698 15.7914C1.41194 15.0078 0.583378 13.7279 0.292969 12.3363C0.494368 12.2832 0.925348 12.258 1.14299 12.2411Z" fill="#15B078"/>
<path d="M1.14299 12.2411C2.67945 12.1045 4.51192 12.9426 5.46347 14.1337C5.54299 14.2331 5.64422 14.3284 5.71895 14.4295C6.2091 15.0921 6.45789 15.8221 6.68401 16.5934C6.46824 16.5925 6.13145 16.6356 5.9066 16.6588C4.80235 16.7687 3.52646 16.3944 2.60698 15.7914C1.41194 15.0078 0.583378 13.7279 0.292969 12.3363C0.494368 12.2832 0.925348 12.258 1.14299 12.2411Z" fill="url(#paint2_radial_944_20025)" fill-opacity="0.47"/>
<path d="M1.14299 12.2411C2.67945 12.1045 4.51192 12.9426 5.46347 14.1337C5.54299 14.2331 5.64422 14.3284 5.71895 14.4295C6.2091 15.0921 6.45789 15.8221 6.68401 16.5934C6.46824 16.5925 6.13145 16.6356 5.9066 16.6588C4.80235 16.7687 3.52646 16.3944 2.60698 15.7914C1.41194 15.0078 0.583378 13.7279 0.292969 12.3363C0.494368 12.2832 0.925348 12.258 1.14299 12.2411Z" stroke="url(#paint3_linear_944_20025)" stroke-width="0.5"/>
<path d="M0.957622 5.78516C1.28202 5.86571 1.62781 5.91541 1.94197 6.02205C3.30878 6.48605 4.4652 7.6361 4.97084 8.98379C5.17217 9.52035 5.35604 10.696 5.24527 11.2606C5.03416 11.2342 4.77957 11.2465 4.56801 11.1897C2.8593 10.7305 1.5117 9.35908 1.07803 7.64393C0.926151 7.04325 0.84783 6.38472 0.957622 5.78516Z" fill="#15B078"/>
<path d="M0.957622 5.78516C1.28202 5.86571 1.62781 5.91541 1.94197 6.02205C3.30878 6.48605 4.4652 7.6361 4.97084 8.98379C5.17217 9.52035 5.35604 10.696 5.24527 11.2606C5.03416 11.2342 4.77957 11.2465 4.56801 11.1897C2.8593 10.7305 1.5117 9.35908 1.07803 7.64393C0.926151 7.04325 0.84783 6.38472 0.957622 5.78516Z" fill="url(#paint4_radial_944_20025)" fill-opacity="0.47"/>
<path d="M0.957622 5.78516C1.28202 5.86571 1.62781 5.91541 1.94197 6.02205C3.30878 6.48605 4.4652 7.6361 4.97084 8.98379C5.17217 9.52035 5.35604 10.696 5.24527 11.2606C5.03416 11.2342 4.77957 11.2465 4.56801 11.1897C2.8593 10.7305 1.5117 9.35908 1.07803 7.64393C0.926151 7.04325 0.84783 6.38472 0.957622 5.78516Z" stroke="url(#paint5_linear_944_20025)" stroke-width="0.5"/>
<path d="M3.38809 0.337891C4.30311 0.622645 5.33526 1.59847 5.76642 2.4398C6.05663 3.00606 6.25853 3.86142 6.2704 4.48872C6.2743 4.63932 6.26686 4.78998 6.24818 4.93946C6.22347 5.12908 6.03031 6.07939 5.90983 6.20476L5.87651 6.19972C3.8998 5.29802 2.83095 3.33804 3.25685 1.19036C3.29389 1.00361 3.33029 0.820979 3.3788 0.636494C3.43666 0.582892 3.52709 0.521965 3.51801 0.441973L3.48131 0.441356L3.40945 0.514302L3.3865 0.509106L3.38809 0.337891Z" fill="#15B078"/>
<path d="M3.38809 0.337891C4.30311 0.622645 5.33526 1.59847 5.76642 2.4398C6.05663 3.00606 6.25853 3.86142 6.2704 4.48872C6.2743 4.63932 6.26686 4.78998 6.24818 4.93946C6.22347 5.12908 6.03031 6.07939 5.90983 6.20476L5.87651 6.19972C3.8998 5.29802 2.83095 3.33804 3.25685 1.19036C3.29389 1.00361 3.33029 0.820979 3.3788 0.636494C3.43666 0.582892 3.52709 0.521965 3.51801 0.441973L3.48131 0.441356L3.40945 0.514302L3.3865 0.509106L3.38809 0.337891Z" fill="url(#paint6_radial_944_20025)" fill-opacity="0.47"/>
<path d="M3.38809 0.337891C4.30311 0.622645 5.33526 1.59847 5.76642 2.4398C6.05663 3.00606 6.25853 3.86142 6.2704 4.48872C6.2743 4.63932 6.26686 4.78998 6.24818 4.93946C6.22347 5.12908 6.03031 6.07939 5.90983 6.20476L5.87651 6.19972C3.8998 5.29802 2.83095 3.33804 3.25685 1.19036C3.29389 1.00361 3.33029 0.820979 3.3788 0.636494C3.43666 0.582892 3.52709 0.521965 3.51801 0.441973L3.48131 0.441356L3.40945 0.514302L3.3865 0.509106L3.38809 0.337891Z" stroke="url(#paint7_linear_944_20025)" stroke-width="0.5"/>
<defs>
<radialGradient id="paint0_radial_944_20025" cx="0" cy="0" r="1" gradientTransform="matrix(0.713549 2.64714 -4.8227 0.0899906 5.15997 20.0334)" gradientUnits="userSpaceOnUse">
<stop stop-color="#00FCA1"/>
<stop offset="1" stop-color="#00AF70"/>
</radialGradient>
<linearGradient id="paint1_linear_944_20025" x1="3.90233" y1="18.3789" x2="4.17641" y2="22.8929" gradientUnits="userSpaceOnUse">
<stop stop-color="#185440"/>
<stop offset="1" stop-color="#35BA8E"/>
</linearGradient>
<radialGradient id="paint2_radial_944_20025" cx="0" cy="0" r="1" gradientTransform="matrix(0.581904 2.73929 -3.93295 0.0931233 2.90659 13.9386)" gradientUnits="userSpaceOnUse">
<stop stop-color="#00FCA1"/>
<stop offset="1" stop-color="#00AF70"/>
</radialGradient>
<linearGradient id="paint3_linear_944_20025" x1="1.88097" y1="12.2266" x2="2.24005" y2="16.8873" gradientUnits="userSpaceOnUse">
<stop stop-color="#185440"/>
<stop offset="1" stop-color="#35BA8E"/>
</linearGradient>
<radialGradient id="paint4_radial_944_20025" cx="0" cy="0" r="1" gradientTransform="matrix(0.398106 3.36952 -2.6907 0.114548 2.69434 7.89111)" gradientUnits="userSpaceOnUse">
<stop stop-color="#00FCA1"/>
<stop offset="1" stop-color="#00AF70"/>
</radialGradient>
<linearGradient id="paint5_linear_944_20025" x1="1.99267" y1="5.78516" x2="2.77651" y2="11.4436" gradientUnits="userSpaceOnUse">
<stop stop-color="#185440"/>
<stop offset="1" stop-color="#35BA8E"/>
</linearGradient>
<radialGradient id="paint6_radial_944_20025" cx="0" cy="0" r="1" gradientTransform="matrix(0.282924 3.61038 -1.91221 0.122737 4.43481 2.59438)" gradientUnits="userSpaceOnUse">
<stop stop-color="#00FCA1"/>
<stop offset="1" stop-color="#00AF70"/>
</radialGradient>
<linearGradient id="paint7_linear_944_20025" x1="3.93615" y1="0.337891" x2="5.17278" y2="6.25893" gradientUnits="userSpaceOnUse">
<stop stop-color="#185440"/>
<stop offset="1" stop-color="#35BA8E"/>
</linearGradient>
</defs>
</svg>
