<svg width="24" height="24" viewBox="0 0 24 24" fill="none" xmlns="http://www.w3.org/2000/svg">
<path d="M6.43421 14.5322C6.43421 15.6422 5.52751 16.5489 4.41759 16.5489C3.30767 16.5489 2.40097 15.6422 2.40097 14.5322C2.40097 13.4223 3.30767 12.5156 4.41759 12.5156H6.43421V14.5322Z" fill="#333333"/>
<path d="M7.4503 14.5322C7.4503 13.4223 8.357 12.5156 9.46692 12.5156C10.5768 12.5156 11.4835 13.4223 11.4835 14.5322V19.5816C11.4835 20.6915 10.5768 21.5982 9.46692 21.5982C8.357 21.5982 7.4503 20.6915 7.4503 19.5816V14.5322Z" fill="#333333"/>
<path d="M9.46692 6.43167C8.357 6.43167 7.4503 5.52498 7.4503 4.41505C7.4503 3.30513 8.357 2.39844 9.46692 2.39844C10.5768 2.39844 11.4835 3.30513 11.4835 4.41505V6.43167H9.46692Z" fill="#333333"/>
<path d="M9.46695 7.45312C10.5769 7.45312 11.4836 8.35982 11.4836 9.46974C11.4836 10.5797 10.5769 11.4864 9.46695 11.4864H4.41759C3.30767 11.4864 2.40097 10.5797 2.40097 9.46974C2.40097 8.35982 3.30767 7.45312 4.41759 7.45312H9.46695Z" fill="#333333"/>
<path d="M17.5661 9.46974C17.5661 8.35982 18.4728 7.45312 19.5827 7.45312C20.6927 7.45312 21.5994 8.35982 21.5994 9.46974C21.5994 10.5797 20.6927 11.4864 19.5827 11.4864H17.5661V9.46974Z" fill="#333333"/>
<path d="M16.55 9.46441C16.55 10.5743 15.6433 11.481 14.5334 11.481C13.4235 11.481 12.5168 10.5743 12.5168 9.46441V4.41506C12.5168 3.30513 13.4235 2.39844 14.5334 2.39844C15.6433 2.39844 16.55 3.30513 16.55 4.41506V9.46441Z" fill="#333333"/>
<path d="M14.5334 17.5703C15.6433 17.5703 16.55 18.477 16.55 19.5869C16.55 20.6968 15.6433 21.6035 14.5334 21.6035C13.4235 21.6035 12.5168 20.6968 12.5168 19.5869V17.5703H14.5334Z" fill="#333333"/>
<path d="M14.5334 16.5489C13.4235 16.5489 12.5168 15.6422 12.5168 14.5322C12.5168 13.4223 13.4235 12.5156 14.5334 12.5156H19.5828C20.6927 12.5156 21.5994 13.4223 21.5994 14.5322C21.5994 15.6422 20.6927 16.5489 19.5828 16.5489H14.5334Z" fill="#333333"/>
</svg>
