<svg width="15" height="15" viewBox="0 0 15 15" fill="none" xmlns="http://www.w3.org/2000/svg">
<path d="M7.5 11.3649C7.5228 11.3649 7.5456 11.3674 7.56799 11.3724C7.61862 11.3837 7.66595 11.4126 7.76062 11.4705L10.8825 13.3773C11.2045 13.5739 11.3654 13.6723 11.4791 13.6542C11.5778 13.6385 11.663 13.5766 11.7084 13.4876C11.7608 13.385 11.717 13.2015 11.6295 12.8346L10.7807 9.27626C10.7549 9.16836 10.7421 9.1144 10.747 9.06276C10.7513 9.01709 10.7657 8.97294 10.789 8.93343C10.8154 8.88877 10.8575 8.85268 10.9417 8.78052L13.7199 6.4007C14.0065 6.15525 14.1497 6.03252 14.1677 5.9188C14.1833 5.82012 14.1507 5.71994 14.0801 5.64925C13.9987 5.56779 13.8107 5.55272 13.4346 5.52257L9.78819 5.23024C9.67762 5.22137 9.62232 5.21694 9.57473 5.19631C9.53263 5.17806 9.49507 5.15078 9.46472 5.11638C9.43039 5.07749 9.40909 5.02628 9.36649 4.92385L7.96165 1.54623C7.81676 1.19787 7.74432 1.02369 7.6417 0.971478C7.59718 0.948827 7.54859 0.937501 7.5 0.9375V11.3649Z" fill="#FFCB47"/>
<path d="M7.49965 0.9375C7.45105 0.937499 7.40246 0.948825 7.35793 0.971478C7.25532 1.02369 7.18287 1.19787 7.03798 1.54623L5.63315 4.92385C5.59055 5.02628 5.56925 5.07749 5.53492 5.11638C5.50456 5.15078 5.467 5.17806 5.42491 5.19631C5.37731 5.21694 5.32202 5.22137 5.21145 5.23023L1.56502 5.52257C1.18893 5.55272 1.00089 5.56779 0.919529 5.64925C0.848927 5.71994 0.816377 5.82012 0.831948 5.9188C0.849892 6.03252 0.99316 6.15525 1.2797 6.4007L4.05789 8.78052C4.14213 8.85268 4.18426 8.88877 4.21064 8.93343C4.23397 8.97294 4.24832 9.01709 4.25266 9.06276C4.25757 9.1144 4.24471 9.16835 4.21897 9.27625L3.37018 12.8346C3.28264 13.2015 3.23887 13.385 3.2912 13.4876C3.33661 13.5766 3.42182 13.6385 3.52049 13.6542C3.63419 13.6723 3.79518 13.5739 4.11716 13.3773L7.23902 11.4705C7.33368 11.4126 7.38102 11.3837 7.43165 11.3724C7.45404 11.3674 7.47685 11.3649 7.49965 11.3649V0.9375Z" fill="#FFCB47"/>
</svg>
