<svg width="6" height="6" viewBox="0 0 6 6" fill="none" xmlns="http://www.w3.org/2000/svg">
<path d="M0.241795 3.35054L1.04151 3.65442C1.33866 3.76734 1.60852 3.94193 1.83329 4.16671C2.05807 4.39148 2.23266 4.66134 2.34558 4.95849L2.64945 5.75821C2.67647 5.8293 2.72447 5.8905 2.78707 5.93369C2.84968 5.97687 2.92394 6 3 6C3.07606 6 3.15031 5.97687 3.21292 5.93369C3.27553 5.8905 3.32353 5.8293 3.35054 5.75821L3.65442 4.95849C3.76734 4.66134 3.94193 4.39148 4.16671 4.16671C4.39148 3.94193 4.66134 3.76734 4.95849 3.65442L5.7582 3.35054C5.8293 3.32353 5.8905 3.27553 5.93369 3.21292C5.97687 3.15031 6 3.07606 6 3C6 2.92394 5.97687 2.84968 5.93369 2.78707C5.8905 2.72447 5.8293 2.67647 5.7582 2.64945L4.95849 2.34558C4.66134 2.23266 4.39148 2.05807 4.16671 1.83329C3.94193 1.60851 3.76734 1.33866 3.65442 1.04151L3.35054 0.241795C3.32353 0.170698 3.27553 0.109497 3.21292 0.0663117C3.15031 0.0231269 3.07606 0 3 0C2.92394 0 2.84968 0.0231269 2.78707 0.0663117C2.72447 0.109497 2.67647 0.170698 2.64945 0.241795L2.34558 1.04151C2.23266 1.33866 2.05807 1.60851 1.83329 1.83329C1.60852 2.05807 1.33866 2.23266 1.04151 2.34558L0.241795 2.64945C0.170698 2.67647 0.109497 2.72447 0.0663117 2.78707C0.0231269 2.84968 0 2.92394 0 3C0 3.07606 0.0231269 3.15031 0.0663117 3.21292C0.109497 3.27553 0.170698 3.32353 0.241795 3.35054Z" fill="#3B7DFD"/>
</svg>
