<svg width="24" height="24" viewBox="0 0 24 24" fill="none" xmlns="http://www.w3.org/2000/svg">
<g clip-path="url(#clip0_1002_22805)">
<path d="M3 9H21" stroke="#323232" stroke-width="1.5" stroke-linecap="round" stroke-linejoin="round" vector-effect="non-scaling-stroke"/>
<path d="M11.0001 5.99609L10.9951 6.00109L11.0001 6.00609L11.0051 6.00109L11.0001 5.99609Z" stroke="#323232" stroke-width="1.5" stroke-linecap="round" stroke-linejoin="round" vector-effect="non-scaling-stroke"/>
<path d="M8.50012 5.99609L8.49512 6.00109L8.50012 6.00609L8.50512 6.00109L8.50012 5.99609Z" stroke="#323232" stroke-width="1.5" stroke-linecap="round" stroke-linejoin="round" vector-effect="non-scaling-stroke"/>
<path d="M6.00012 5.99609L5.99512 6.00109L6.00012 6.00609L6.00512 6.00109L6.00012 5.99609Z" stroke="#323232" stroke-width="1.5" stroke-linecap="round" stroke-linejoin="round" vector-effect="non-scaling-stroke"/>
<path d="M11.0001 5.99609L10.9951 6.00109L11.0001 6.00609L11.0051 6.00109L11.0001 5.99609Z" stroke="#323232" stroke-width="1.5" stroke-linecap="round" stroke-linejoin="round" vector-effect="non-scaling-stroke"/>
<path d="M8.50012 5.99609L8.49512 6.00109L8.50012 6.00609L8.50512 6.00109L8.50012 5.99609Z" stroke="#323232" stroke-width="1.5" stroke-linecap="round" stroke-linejoin="round" vector-effect="non-scaling-stroke"/>
<path d="M6.00012 5.99609L5.99512 6.00109L6.00012 6.00609L6.00512 6.00109L6.00012 5.99609Z" stroke="#323232" stroke-width="1.5" stroke-linecap="round" stroke-linejoin="round" vector-effect="non-scaling-stroke"/>
<path d="M18 21H6C5.20435 21 4.44129 20.6839 3.87868 20.1213C3.31607 19.5587 3 18.7956 3 18V6C3 5.20435 3.31607 4.44129 3.87868 3.87868C4.44129 3.31607 5.20435 3 6 3H18C18.7956 3 19.5587 3.31607 20.1213 3.87868C20.6839 4.44129 21 5.20435 21 6V18C21 18.7956 20.6839 19.5587 20.1213 20.1213C19.5587 20.6839 18.7956 21 18 21Z" stroke="#323232" stroke-width="1.5" stroke-linecap="round" stroke-linejoin="round" vector-effect="non-scaling-stroke"/>
</g>
<defs>
<clipPath id="clip0_1002_22805">
<rect width="24" height="24" fill="white"/>
</clipPath>
</defs>
</svg>
