<svg width="24" height="24" viewBox="0 0 24 24" fill="none" xmlns="http://www.w3.org/2000/svg">
<path d="M12 21C13.486 21.0018 14.9492 20.6339 16.2576 19.9293L20.3676 20.9755C20.4517 20.9969 20.5398 20.9961 20.6234 20.9731C20.707 20.9502 20.7832 20.9058 20.8445 20.8445C20.9058 20.7832 20.9501 20.707 20.9731 20.6234C20.9961 20.5398 20.9969 20.4517 20.9755 20.3676L19.9293 16.2576C20.8609 14.5226 21.1978 12.5299 20.8882 10.5851C20.5786 8.64022 19.6396 6.85061 18.2152 5.49065C16.7909 4.13068 14.9598 3.27543 13.0027 3.05604C11.0457 2.83664 9.07066 3.26522 7.38054 4.27604C5.69042 5.28687 4.3785 6.82414 3.64594 8.65215C2.91338 10.4802 2.80062 12.498 3.32495 14.3962C3.84928 16.2945 4.98176 17.9684 6.54873 19.1612C8.1157 20.354 10.0307 21 12 21Z" stroke="#424242" stroke-width="1.5" stroke-linecap="round" stroke-linejoin="round" vector-effect="non-scaling-stroke"/>
</svg>
