<svg width="4" height="16" viewBox="0 0 4 16" fill="none" xmlns="http://www.w3.org/2000/svg">
<g clip-path="url(#clip0_1102_36980)">
<path d="M1.99703 13.5C1.72203 13.5 1.49703 13.725 1.50003 14C1.50003 14.275 1.72503 14.5 2.00003 14.5C2.27503 14.5 2.50003 14.275 2.50003 14C2.50003 13.725 2.27503 13.5 1.99703 13.5Z" fill="#707070" stroke="#707070" stroke-width="1.5" stroke-linecap="round" stroke-linejoin="round"/>
<path d="M1.99703 7.5C1.72203 7.5 1.49703 7.725 1.50003 8C1.50003 8.275 1.72503 8.5 2.00003 8.5C2.27503 8.5 2.50003 8.275 2.50003 8C2.50003 7.725 2.27503 7.5 1.99703 7.5Z" fill="#707070" stroke="#707070" stroke-width="1.5" stroke-linecap="round" stroke-linejoin="round"/>
<path d="M1.99703 1.5C1.72203 1.5 1.49703 1.725 1.50003 2C1.50003 2.275 1.72503 2.5 2.00003 2.5C2.27503 2.5 2.50003 2.275 2.50003 2C2.50003 1.725 2.27503 1.5 1.99703 1.5Z" fill="#707070" stroke="#707070" stroke-width="1.5" stroke-linecap="round" stroke-linejoin="round"/>
</g>
<defs>
<clipPath id="clip0_1102_36980">
<rect width="4" height="16" fill="white"/>
</clipPath>
</defs>
</svg>
