<svg width="24" height="24" viewBox="0 0 24 24" fill="none" xmlns="http://www.w3.org/2000/svg">
<path d="M9.75 8.55076C9.75 8.3738 9.79696 8.20001 9.88609 8.04714C9.97521 7.89426 10.1033 7.76777 10.2573 7.68059C10.4113 7.5934 10.5856 7.54863 10.7626 7.55086C10.9395 7.55309 11.1127 7.60223 11.2645 7.69327L14.5953 9.69177C14.7433 9.78062 14.8659 9.90629 14.9509 10.0566C15.036 10.2068 15.0807 10.3766 15.0807 10.5492C15.0807 10.7219 15.036 10.8916 14.9509 11.0419C14.8659 11.1922 14.7433 11.3179 14.5953 11.4067L11.2645 13.4052C11.1127 13.4962 10.9395 13.5454 10.7626 13.5476C10.5857 13.5498 10.4113 13.5051 10.2573 13.4179C10.1033 13.3307 9.97522 13.2042 9.8861 13.0513C9.79697 12.8985 9.75001 12.7247 9.75 12.5477V8.55076Z" stroke="#323232" stroke-width="1.5" stroke-linecap="round" stroke-linejoin="round"/>
<path d="M12.5 18L8.90349 20.8771C8.82169 20.9426 8.72308 20.9836 8.619 20.9954C8.51492 21.0073 8.40962 20.9895 8.3152 20.9441C8.22079 20.8987 8.14112 20.8276 8.08535 20.7389C8.02959 20.6502 8 20.5476 8 20.4429V18H6C5.20435 18 4.44129 17.6839 3.87868 17.1213C3.31607 16.5587 3 15.7956 3 15V6C3 5.20435 3.31607 4.44129 3.87868 3.87868C4.44129 3.31607 5.20435 3 6 3H18C18.7956 3 19.5587 3.31607 20.1213 3.87868C20.6839 4.44129 21 5.20435 21 6V15C21 15.7956 20.6839 16.5587 20.1213 17.1213C19.5587 17.6839 18.7956 18 18 18H12.5Z" stroke="#323232" stroke-width="1.5" stroke-linecap="round" stroke-linejoin="round"/>
</svg>
