<svg width="24" height="24" viewBox="0 0 24 24" fill="none" xmlns="http://www.w3.org/2000/svg">
<g clip-path="url(#clip0_4001_7903)">
<path d="M18.5 6.95323L16.1351 3.80013C15.8284 3.39115 15.3767 3.11515 14.8728 3.02884C14.3689 2.94253 13.8511 3.05245 13.4257 3.33603L7.92981 6.99999" stroke="#333333" stroke-width="1.5" stroke-linecap="round" stroke-linejoin="round" vector-effect="non-scaling-stroke"/>
<path d="M18.5 11.5H21C21.2652 11.5 21.5196 11.6054 21.7071 11.7929C21.8946 11.9804 22 12.2348 22 12.5V15.5C22 15.7652 21.8946 16.0196 21.7071 16.2071C21.5196 16.3946 21.2652 16.5 21 16.5H18.5C17.837 16.5 17.2011 16.2366 16.7322 15.7678C16.2634 15.2989 16 14.663 16 14C16 13.337 16.2634 12.7011 16.7322 12.2322C17.2011 11.7634 17.837 11.5 18.5 11.5Z" stroke="#333333" stroke-width="1.5" stroke-linecap="round" stroke-linejoin="round" vector-effect="non-scaling-stroke"/>
<path d="M21 11.5V9.5C21 8.83696 20.7366 8.20107 20.2678 7.73223C19.7989 7.26339 19.163 7 18.5 7H5.5C4.83696 7 4.20107 7.26339 3.73223 7.73223C3.26339 8.20107 3 8.83696 3 9.5V18.5C3 19.163 3.26339 19.7989 3.73223 20.2678C4.20107 20.7366 4.83696 21 5.5 21H18.5C19.163 21 19.7989 20.7366 20.2678 20.2678C20.7366 19.7989 21 19.163 21 18.5V16.5" stroke="#333333" stroke-width="1.5" stroke-linecap="round" stroke-linejoin="round" vector-effect="non-scaling-stroke"/>
</g>
<defs>
<clipPath id="clip0_4001_7903">
<rect width="24" height="24" fill="white"/>
</clipPath>
</defs>
</svg>
