<svg width="24" height="24" viewBox="0 0 24 24" fill="none" xmlns="http://www.w3.org/2000/svg">
<g clip-path="url(#clip0_1109_21746)">
<path d="M3 8H13" stroke="#323232" stroke-width="1.5" stroke-linecap="round" stroke-linejoin="round"/>
<path d="M21 4H3" stroke="#323232" stroke-width="1.5" stroke-linecap="round" stroke-linejoin="round"/>
<path d="M3 12H9" stroke="#323232" stroke-width="1.5" stroke-linecap="round" stroke-linejoin="round"/>
<path d="M3 16H8" stroke="#323232" stroke-width="1.5" stroke-linecap="round" stroke-linejoin="round"/>
<path d="M3 8H13" stroke="#323232" stroke-width="1.5" stroke-linecap="round" stroke-linejoin="round"/>
<path d="M21 4H3" stroke="#323232" stroke-width="1.5" stroke-linecap="round" stroke-linejoin="round"/>
<path d="M3 12H9" stroke="#323232" stroke-width="1.5" stroke-linecap="round" stroke-linejoin="round"/>
<path d="M3 16H8" stroke="#323232" stroke-width="1.5" stroke-linecap="round" stroke-linejoin="round"/>
<path d="M21 20H3" stroke="#323232" stroke-width="1.5" stroke-linecap="round" stroke-linejoin="round"/>
<path d="M17.0002 15.9993C17.0002 13.7893 15.2002 11.9993 13.0002 11.9893L12.9902 11.9883C15.1902 11.9883 16.9802 13.7783 16.9902 15.9783" stroke="#323232" stroke-width="1.5" stroke-linecap="round" stroke-linejoin="round"/>
<path d="M16.9997 8.00194L16.9897 7.99194C16.9897 10.1919 18.7797 11.9819 20.9797 11.9919H20.9697C18.7597 11.9919 16.9697 13.7819 16.9697 15.9919H16.9597C16.9597 13.7819 18.7497 11.9919 20.9497 11.9819L20.9397 11.9809C18.7297 11.9709 16.9397 10.1809 16.9397 7.97094V7.96094C16.9397 10.1609 15.1397 11.9509 12.9397 11.9609H12.9297C15.1297 11.9509 16.9197 10.1609 16.9297 7.96094" stroke="#323232" stroke-width="1.5" stroke-linecap="round" stroke-linejoin="round"/>
</g>
<defs>
<clipPath id="clip0_1109_21746">
<rect width="24" height="24" fill="white"/>
</clipPath>
</defs>
</svg>
