<svg width="12" height="13" viewBox="0 0 12 13" fill="none" xmlns="http://www.w3.org/2000/svg">
<path d="M11.5 6.86766C11.5 9.53215 8.30667 11.5115 6.78383 12.3062C6.54161 12.4333 6.2735 12.4998 6.00146 12.5C5.72942 12.5002 5.4612 12.4343 5.21876 12.3076C3.69696 11.5136 0.5 9.52946 0.5 6.86766V3.01955C0.502443 2.84529 0.566835 2.67795 0.681057 2.54903C0.79528 2.4201 0.951455 2.33849 1.12019 2.31954C2.57901 2.20573 3.97762 1.67467 5.15754 0.786543C5.40103 0.600486 5.69646 0.5 5.99999 0.5C6.30351 0.5 6.59894 0.600486 6.84243 0.786543C8.02235 1.67467 9.42096 2.20573 10.8798 2.31954C11.0485 2.33848 11.2047 2.42009 11.3189 2.54902C11.4332 2.67794 11.4976 2.84528 11.5 3.01955V6.86766Z" stroke="#9B9B9B" stroke-linecap="round" stroke-linejoin="round"/>
</svg>
