<svg width="24" height="24" viewBox="0 0 24 24" fill="none" xmlns="http://www.w3.org/2000/svg">
<g clip-path="url(#clip0_1078_32313)">
<path d="M16 13.5078C17.1046 13.5078 18 12.6124 18 11.5078C18 10.4032 17.1046 9.50781 16 9.50781C14.8954 9.50781 14 10.4032 14 11.5078C14 12.6124 14.8954 13.5078 16 13.5078Z" stroke="#323232" stroke-width="1.5" stroke-linecap="round" stroke-linejoin="round"/>
<path d="M18.7909 3H5.20912C3.98906 3 3 3.98906 3 5.20912V18.7909C3 20.0109 3.98906 21 5.20912 21H18.7909C20.0109 21 21 20.0109 21 18.7909V5.20912C21 3.98906 20.0109 3 18.7909 3Z" stroke="#323232" stroke-width="1.5" stroke-linecap="round" stroke-linejoin="round"/>
<path d="M9 13.5078C10.3807 13.5078 11.5 12.3885 11.5 11.0078C11.5 9.6271 10.3807 8.50781 9 8.50781C7.61929 8.50781 6.5 9.6271 6.5 11.0078C6.5 12.3885 7.61929 13.5078 9 13.5078Z" stroke="#323232" stroke-width="1.5" stroke-linecap="round" stroke-linejoin="round"/>
<path d="M14.5002 21V20C14.5002 18.067 12.9332 16.5 11.0002 16.5H7.05516C5.43614 16.5024 4.03096 17.617 3.66016 19.193" stroke="#323232" stroke-width="1.5" stroke-linecap="round" stroke-linejoin="round"/>
<path d="M16 16.5078H17.506C18.8793 16.5116 20.1211 17.3252 20.673 18.5828" stroke="#323232" stroke-width="1.5" stroke-linecap="round" stroke-linejoin="round"/>
</g>
<defs>
<clipPath id="clip0_1078_32313">
<rect width="24" height="24" fill="white"/>
</clipPath>
</defs>
</svg>
