<svg width="24" height="24" viewBox="0 0 24 24" fill="none" xmlns="http://www.w3.org/2000/svg">
<g clip-path="url(#clip0_1078_32306)">
<path d="M3 13V6C3 5.20435 3.31607 4.44129 3.87868 3.87868C4.44129 3.31607 5.20435 3 6 3H18C18.7956 3 19.5587 3.31607 20.1213 3.87868C20.6839 4.44129 21 5.20435 21 6V13C21 13.7956 20.6839 14.5587 20.1213 15.1213C19.5587 15.6839 18.7956 16 18 16H6C5.20435 16 4.44129 15.6839 3.87868 15.1213C3.31607 14.5587 3 13.7956 3 13Z" stroke="#323232" stroke-width="1.5" stroke-linecap="round" stroke-linejoin="round"/>
<path d="M10.123 11.3481V7.64997C10.1231 7.53583 10.1531 7.42372 10.2102 7.32489C10.2673 7.22607 10.3494 7.14401 10.4483 7.08698C10.5472 7.02995 10.6593 6.99995 10.7734 7C10.8876 7.00005 10.9997 7.03014 11.0985 7.08726L14.2983 8.93634C14.397 8.99339 14.479 9.07542 14.536 9.17419C14.593 9.27297 14.623 9.385 14.623 9.49905C14.623 9.61309 14.593 9.72513 14.536 9.8239C14.479 9.92267 14.397 10.0047 14.2983 10.0618L11.0985 11.9108C10.9997 11.968 10.8876 11.9981 10.7734 11.9981C10.6593 11.9981 10.5472 11.9681 10.4483 11.9111C10.3494 11.8541 10.2673 11.772 10.2102 11.6732C10.1531 11.5744 10.1231 11.4623 10.123 11.3481Z" stroke="#323232" stroke-width="1.5" stroke-linecap="round" stroke-linejoin="round"/>
<path d="M20 20H10" stroke="#323232" stroke-width="1.5" stroke-linecap="round" stroke-linejoin="round"/>
<path d="M4 20H7" stroke="#323232" stroke-width="1.5" stroke-linecap="round" stroke-linejoin="round"/>
<path d="M7 21V19" stroke="#323232" stroke-width="1.5" stroke-linecap="round" stroke-linejoin="round"/>
</g>
<defs>
<clipPath id="clip0_1078_32306">
<rect width="24" height="24" fill="white"/>
</clipPath>
</defs>
</svg>
