<svg width="24" height="24" viewBox="0 0 24 24" fill="none" xmlns="http://www.w3.org/2000/svg">
<path d="M18 13.75L19.7071 15.4571C19.8946 15.6446 20 15.899 20 16.1642V17C20 17.2652 19.8946 17.5196 19.7071 17.7071C19.5196 17.8946 19.2652 18 19 18H5C4.73478 18 4.48043 17.8946 4.29289 17.7071C4.10536 17.5196 4 17.2652 4 17V16.1642C4 15.899 4.10536 15.6446 4.29289 15.4571L6 13.75V9.5C6 7.9087 6.63214 6.38258 7.75736 5.25736C8.88258 4.13214 10.4087 3.5 12 3.5C13.5913 3.5 15.1174 4.13214 16.2426 5.25736C17.3679 6.38258 18 7.9087 18 9.5V13.75Z" stroke="black" stroke-width="1.5" stroke-linecap="round" stroke-linejoin="round"/>
<path d="M9 18V18.25C9 19.0456 9.31607 19.8087 9.87868 20.3713C10.4413 20.9339 11.2044 21.25 12 21.25C12.7956 21.25 13.5587 20.9339 14.1213 20.3713C14.6839 19.8087 15 19.0456 15 18.25V18" stroke="black" stroke-width="1.5" stroke-linecap="round" stroke-linejoin="round"/>
</svg>
