<svg width="24" height="24" viewBox="0 0 24 24" fill="none" xmlns="http://www.w3.org/2000/svg">
<path d="M19.3432 3H4.65684C3.74179 3 3 3.74179 3 4.65684V19.3432C3 20.2582 3.74179 21 4.65684 21H19.3432C20.2582 21 21 20.2582 21 19.3432V4.65684C21 3.74179 20.2582 3 19.3432 3Z" stroke="#707070" stroke-width="1.5" stroke-linecap="round" stroke-linejoin="round"/>
<path d="M21 8H3" stroke="#707070" stroke-width="1.5" stroke-linecap="round" stroke-linejoin="round"/>
<path d="M17.3 11.4992C17.3 11.5268 17.2776 11.5492 17.25 11.5492C17.2224 11.5492 17.2 11.5268 17.2 11.4992C17.2 11.4716 17.2224 11.4492 17.25 11.4492" stroke="#707070" stroke-width="1.5" stroke-linecap="round" stroke-linejoin="round"/>
<path d="M17.25 11.4492V11.4492C17.2776 11.4492 17.3 11.4716 17.3 11.4992V11.4992" stroke="#707070" stroke-width="1.5" stroke-linecap="round" stroke-linejoin="round"/>
<path d="M13.799 11.4992C13.799 11.5268 13.7766 11.5492 13.749 11.5492C13.7214 11.5492 13.699 11.5268 13.699 11.4992C13.699 11.4716 13.7214 11.4492 13.749 11.4492" stroke="#707070" stroke-width="1.5" stroke-linecap="round" stroke-linejoin="round"/>
<path d="M13.749 11.4492V11.4492C13.7766 11.4492 13.799 11.4716 13.799 11.4992V11.4992" stroke="#707070" stroke-width="1.5" stroke-linecap="round" stroke-linejoin="round"/>
<path d="M10.299 11.4992C10.299 11.5268 10.2766 11.5492 10.249 11.5492C10.2214 11.5492 10.199 11.5268 10.199 11.4992C10.199 11.4716 10.2214 11.4492 10.249 11.4492" stroke="#707070" stroke-width="1.5" stroke-linecap="round" stroke-linejoin="round"/>
<path d="M10.249 11.4492V11.4492C10.2766 11.4492 10.299 11.4716 10.299 11.4992V11.4992" stroke="#707070" stroke-width="1.5" stroke-linecap="round" stroke-linejoin="round"/>
<path d="M6.79897 14.4992C6.79897 14.5268 6.77659 14.5492 6.74897 14.5492C6.72136 14.5492 6.69897 14.5268 6.69897 14.4992C6.69897 14.4716 6.72136 14.4492 6.74897 14.4492" stroke="#707070" stroke-width="1.5" stroke-linecap="round" stroke-linejoin="round"/>
<path d="M6.74902 14.4492V14.4492C6.77664 14.4492 6.79902 14.4716 6.79902 14.4992" stroke="#707070" stroke-width="1.5" stroke-linecap="round" stroke-linejoin="round"/>
<path d="M10.299 14.4992C10.299 14.5268 10.2766 14.5492 10.249 14.5492C10.2214 14.5492 10.199 14.5268 10.199 14.4992C10.199 14.4716 10.2214 14.4492 10.249 14.4492" stroke="#707070" stroke-width="1.5" stroke-linecap="round" stroke-linejoin="round"/>
<path d="M10.249 14.4492V14.4492C10.2766 14.4492 10.299 14.4716 10.299 14.4992V14.4992" stroke="#707070" stroke-width="1.5" stroke-linecap="round" stroke-linejoin="round"/>
<path d="M13.799 14.4992C13.799 14.5268 13.7766 14.5492 13.749 14.5492C13.7214 14.5492 13.699 14.5268 13.699 14.4992C13.699 14.4716 13.7214 14.4492 13.749 14.4492" stroke="#707070" stroke-width="1.5" stroke-linecap="round" stroke-linejoin="round"/>
<path d="M13.749 14.4492V14.4492C13.7766 14.4492 13.799 14.4716 13.799 14.4992V14.4992" stroke="#707070" stroke-width="1.5" stroke-linecap="round" stroke-linejoin="round"/>
<path d="M17.3 14.4992C17.3 14.5268 17.2776 14.5492 17.25 14.5492C17.2224 14.5492 17.2 14.5268 17.2 14.4992C17.2 14.4716 17.2224 14.4492 17.25 14.4492" stroke="#707070" stroke-width="1.5" stroke-linecap="round" stroke-linejoin="round"/>
<path d="M17.25 14.4492V14.4492C17.2776 14.4492 17.3 14.4716 17.3 14.4992V14.4992" stroke="#707070" stroke-width="1.5" stroke-linecap="round" stroke-linejoin="round"/>
<path d="M17.3 17.4992C17.3 17.5268 17.2776 17.5492 17.25 17.5492C17.2224 17.5492 17.2 17.5268 17.2 17.4992C17.2 17.4716 17.2224 17.4492 17.25 17.4492" stroke="#707070" stroke-width="1.5" stroke-linecap="round" stroke-linejoin="round"/>
<path d="M17.25 17.4492V17.4492C17.2776 17.4492 17.3 17.4716 17.3 17.4992" stroke="#707070" stroke-width="1.5" stroke-linecap="round" stroke-linejoin="round"/>
<path d="M13.799 17.4992C13.799 17.5268 13.7766 17.5492 13.749 17.5492C13.7214 17.5492 13.699 17.5268 13.699 17.4992C13.699 17.4716 13.7214 17.4492 13.749 17.4492" stroke="#707070" stroke-width="1.5" stroke-linecap="round" stroke-linejoin="round"/>
<path d="M13.749 17.4492V17.4492C13.7766 17.4492 13.799 17.4716 13.799 17.4992" stroke="#707070" stroke-width="1.5" stroke-linecap="round" stroke-linejoin="round"/>
<path d="M10.299 17.4992C10.299 17.5268 10.2766 17.5492 10.249 17.5492C10.2214 17.5492 10.199 17.5268 10.199 17.4992C10.199 17.4716 10.2214 17.4492 10.249 17.4492" stroke="#707070" stroke-width="1.5" stroke-linecap="round" stroke-linejoin="round"/>
<path d="M10.249 17.4492V17.4492C10.2766 17.4492 10.299 17.4716 10.299 17.4992" stroke="#707070" stroke-width="1.5" stroke-linecap="round" stroke-linejoin="round"/>
<path d="M6.79897 17.4992C6.79897 17.5268 6.77659 17.5492 6.74897 17.5492C6.72136 17.5492 6.69897 17.5268 6.69897 17.4992C6.69897 17.4716 6.72136 17.4492 6.74897 17.4492" stroke="#707070" stroke-width="1.5" stroke-linecap="round" stroke-linejoin="round"/>
<path d="M6.74902 17.4492V17.4492C6.77664 17.4492 6.79902 17.4716 6.79902 17.4992" stroke="#707070" stroke-width="1.5" stroke-linecap="round" stroke-linejoin="round"/>
</svg>
