<?xml version="1.0" encoding="utf-8"?>
<!-- Generator: Adobe Illustrator 19.0.0, SVG Export Plug-In . SVG Version: 6.00 Build 0)  -->
<svg version="1.1" id="Layer_1" xmlns="http://www.w3.org/2000/svg" xmlns:xlink="http://www.w3.org/1999/xlink" x="0px" y="0px"
	 viewBox="257.1 238.8 600 320.9" style="enable-background:new 257.1 238.8 600 320.9;" xml:space="preserve">
<metadata><?xpacket begin="﻿" id="W5M0MpCehiHzreSzNTczkc9d"?>
<x:xmpmeta xmlns:x="adobe:ns:meta/" x:xmptk="Adobe XMP Core 5.6-c067 79.157747, 2015/03/30-23:40:42        ">
   <rdf:RDF xmlns:rdf="http://www.w3.org/1999/02/22-rdf-syntax-ns#">
      <rdf:Description rdf:about=""/>
   </rdf:RDF>
</x:xmpmeta>
                                                                                                    
                                                                                                    
                                                                                                    
                                                                                                    
                                                                                                    
                                                                                                    
                                                                                                    
                                                                                                    
                                                                                                    
                                                                                                    
                                                                                                    
                                                                                                    
                                                                                                    
                                                                                                    
                                                                                                    
                                                                                                    
                                                                                                    
                                                                                                    
                                                                                                    
                                                                                                    
                           
<?xpacket end="w"?></metadata>
<style type="text/css">
	.st0{fill:#4D2480;}
</style>
<g id="XMLID_623_">
	<polygon id="XMLID_645_" class="st0" points="259.5,244.1 259.5,246.8 266.3,254.5 266.3,307.2 257.1,309.8 257.1,312.9 
		282.1,312.9 282.1,309.8 274.2,307.7 272.2,305.2 272.2,261.2 316.1,313.4 319.9,313.4 319.9,250.7 329.2,247.9 329.2,244.6 
		303.8,244.6 303.8,248.3 311.9,250.3 313.8,252.8 313.8,294.5 313.8,294.4 313.3,294.4 270.7,244.1 	"/>
	<path id="XMLID_642_" class="st0" d="M353.4,314.1c-12.4,0-24.3-7.9-24.3-24.9c0-16.8,12.6-25.3,24.3-25.3
		c12.2,0,24.5,7.6,24.5,24.5C377.8,304.6,364.8,314.1,353.4,314.1z M368.2,289.8c0-11.6-6.3-21.4-16.2-21.4
		c-8.9,0-13.3,7.7-13.3,19.3c0,11.6,5.6,21.7,16,21.7C363.6,309.4,368.2,301.4,368.2,289.8z"/>
	<path id="XMLID_640_" class="st0" d="M502.4,284.9c0-11.6-6.5-13.8-14-13.8c-6.4,0-10.5,4.7-10.5,4.7v7.6v22.1l2,2.5l6.7,2.3v2.6
		h-24v-2.7l6.8-2.6v-49.7c0-9-2.3-11.5-7.2-11.5V244l15.3-5.2h1c0,0-0.5,10.6-0.5,18.6v14.3c0,0,9.9-7.9,16.7-7.9
		c8.5,0,16.3,3.5,16.3,16v25.6l2,2.5l6.7,2.3v2.6h-24v-2.7l6.6-2.5L502.4,284.9z"/>
	<path id="XMLID_637_" class="st0" d="M599.9,286.4c0,14.3,8.2,20.3,17.4,20.3c5.8,0,12.7-2.4,12.7-2.4l1,2
		c-2.5,2.5-9.4,7.7-18.1,7.7c-11.8,0-22.3-8.8-22.3-24.9c0-14.7,10.1-25.3,22.7-25.3c9.8,0,17.4,5.9,17.4,17c0,2.9-0.5,5.5-0.5,5.5
		L599.9,286.4L599.9,286.4z M615.1,282.5c5-0.2,6.7-1.1,6.7-6.2c0-4.3-3.1-7.6-9.7-7.6c-6.9,0-12.2,6.1-12.2,14.3L615.1,282.5z"/>
	<path id="XMLID_633_" class="st0" d="M642.2,312.2c-0.7-0.3-2.6-1.3-2.7-3.5l-0.6-9.8h4.5c1.2,6.7,5.8,11,11.7,11
		c6,0,8.4-3.1,8.4-7.2c0-3.9-3.2-6-7.1-8.1l-5.3-2.7c-7.5-3.8-11.2-6.9-11.2-14.3c0-9.3,6.7-13.7,17.1-13.7c7.3,0,13,2.8,13,2.8
		l-1.3,12.1h-4.2c0-7.5-3.1-10.3-9.4-10.3c-4.2,0-8.2,1.7-8.2,5.8c0,3.3,1.3,4.7,9.5,9l4.6,2.4c8.5,4.3,10.8,7.9,10.8,15
		c0,8.5-8.5,13.5-16.7,13.5C649.8,314.1,645.2,313.4,642.2,312.2z"/>
	<path id="XMLID_630_" class="st0" d="M723.3,286.4c0,14.3,8.2,20.3,17.4,20.3c5.8,0,12.7-2.4,12.7-2.4l1,2
		c-2.5,2.5-9.4,7.7-18.1,7.7c-11.8,0-22.3-8.8-22.3-24.9c0-14.7,10.1-25.3,22.7-25.3c9.8,0,17.4,5.9,17.4,17c0,2.9-0.5,5.5-0.5,5.5
		L723.3,286.4L723.3,286.4z M738.5,282.5c5-0.2,6.7-1.1,6.7-6.2c0-4.3-3.1-7.6-9.7-7.6c-6.9,0-12.2,6.1-12.2,14.3L738.5,282.5z"/>
	<path id="XMLID_629_" class="st0" d="M850.4,308l-2-2.5l0.1-26.1c0-12.1-7.8-15.5-15.9-15.5c-6.8,0-16.4,7.9-16.4,7.9
		c0-4.3,0.2-8.3,0.2-8.3h-0.8l-15.1,5.5v2.5c5.8,0,7.3,5.2,7.3,14.4v21.7l-6.8,2.6v2.7h23.7l0.2-2.6l-6.7-2.3l-2-2.5v-29.6
		c0,0,3.6-4.9,10.1-4.9c6.7,0,13.6,2.4,13.6,13.8l-0.3,22.9l-6.6,2.5v2.7h23.7l0.2-2.6L850.4,308z"/>
	<path id="XMLID_628_" class="st0" d="M563.9,313.4l-11.1-30.7l-12.6,30.7h-4.3l-12.4-37.9c-1.8-4.7-2.8-7.5-6.1-7.5v-2.9h20.4v2.9
		l-6.2,2l9.3,31.4l8.2-19.6l1.9-5l-2.8-8l-3.5-0.9V265h19.7v3.1l-6.2,1.9l10.5,31.4l10.9-31.2l-7-2.5V265h18.5v2.9
		c-4.2,0.5-6.3,1.7-9.6,10.1l-12.7,35.4H563.9z"/>
	<path id="XMLID_627_" class="st0" d="M456.8,305.8c0,0-2.9,1.9-7.2,1.9c-4.6,0-8.9-2.6-8.8-9l0.4-27h15.3l0,0h0.1l0.2-1.7l0,0
		l1-8.5l-2-0.4l-1.5,3.2l-0.8,0.7l-12.1,0.5l0,0h-0.1v-12.3l-6,1l-2.6,11.7l-8.5,0.8v4c4.6,0,8.5,0.4,8.5,4.9
		c0,4.4-0.4,18.4-0.4,23.9c0,10.5,4,14.4,10.7,14.4c5.8,0,10.5-2.4,14.9-5.9L456.8,305.8z"/>
	<path id="XMLID_626_" class="st0" d="M709.4,305.8c0,0-2.9,1.9-7.2,1.9c-4.6,0-8.9-2.6-8.8-9l0.4-27h15.3l0,0l0,0l0.2-1.7l0,0
		l1-8.5l-2-0.4l-1.5,3.2L706,265l-12.1,0.5l0,0l0,0v-12.3l-6,1l-2.6,11.7l-8.5,0.8v4c4.6,0,8.5,0.4,8.5,4.9c0,4.4-0.4,18.4-0.4,23.9
		c0,10.5,4,14.4,10.7,14.4c5.8,0,10.5-2.4,14.9-5.9L709.4,305.8z"/>
	<path id="XMLID_625_" class="st0" d="M418.3,264.5L418.3,264.5L418.3,264.5c-0.1,0-1.8-0.6-5.2-0.6c-7.2,0-14.8,11.4-14.8,11.4
		c0-6.3,0.2-11.7,0.2-11.7h-0.8l-14.8,5.5v2.5c5.6,0,7.3,5.1,7.3,13.6v22.5l-6.8,2.6v2.7h23.7v-2.6l-6.7-2.3l-2-2.5v-22.2
		c0-6.8,5.4-10.6,11.1-10.6c1.2,0,2.4,0.3,3.4,0.6l1.6,2.4l2,0.2L418.3,264.5L418.3,264.5L418.3,264.5z"/>
	<path id="XMLID_624_" class="st0" d="M795.8,264.5L795.8,264.5L795.8,264.5c-0.1,0-1.8-0.6-5.2-0.6c-7.2,0-14.8,11.4-14.8,11.4
		c0-6.3,0.2-11.7,0.2-11.7h-0.8l-14.8,5.5v2.5c5.6,0,7.3,5.1,7.3,13.6v22.5l-6.8,2.6v2.7h23.7v-2.6l-6.7-2.3l-2-2.5v-22.2
		c0-6.8,5.4-10.6,11.1-10.6c1.2,0,2.4,0.3,3.4,0.6l1.6,2.4l2,0.2L795.8,264.5L795.8,264.5L795.8,264.5z"/>
</g>
<g id="XMLID_620_">
	<path id="XMLID_621_" class="st0" d="M257.1,336.5h600v3.5h-600L257.1,336.5L257.1,336.5z"/>
</g>
<path id="XMLID_815_" class="st0" d="M340.5,428.5c-1.2,1-4.4,4-4.4,5.8s1.8,4.2,4.8,8.2l38.1,51.3c15.6,21.2,24.3,15.6,24.3,20.6
	c0,1.4-0.2,2.6-2.6,2.6c-4.4,0-9.6-0.8-15-0.8c-3.8,0-7.8,0.8-13.4,0.8c-3.8,0-5.8-0.4-9.8-5.8L323,456.7c-2.6-3.4-3.8-5.6-5-5.6
	c-1.6,0-5,3.4-9.4,8.4c-3,3.4-2.6,5.2-2.6,9.8v26.1c0,18.4,19.6,12,19.6,19.2c0,1.8-0.8,2.4-5.6,2.4c-5.4,0-10.8-0.8-22.2-0.8
	c-9.6,0-20,0.8-26.2,0.8c-3.8,0-6.2-0.2-6.2-1.6c0-10,16,3,16-27.2v-86.8c0-24.2-21-14-21-22.8c0-2.2,1.6-3,4-3
	c3.8,0,10.4,0.8,23.9,0.8c11.2,0,23.8-0.8,27.7-0.8c1.8,0,4.2,0,4.2,2.4c0,8-14.4-2.8-14.4,19.2v45.7c0,2-0.2,4.8,1,4.6
	c1.2,0.2,2.4-0.8,5-3.4l26.3-25.7c5.6-5.6,25-21.7,25-30.7c0-6.2-12.2-3.6-12.2-8.2c0-3.6,2-3.8,4.6-3.8c2,0,15.8,0.8,21.7,0.8
	c5,0,10.2-0.8,18.8-0.8c1.6,0,5.2-0.2,5.2,3.4c0,5.4-6.4-0.6-25.7,17L340.5,428.5z"/>
<path id="XMLID_812_" class="st0" d="M423.8,466.7c-3.6,0-4.4-1.4-4.4,5c0,17.2,12.2,32.8,29.5,32.8c11.8,0,21.6-10.6,24.8-10.6
	c0.8,0,2,0.2,2,2.4c0,5-16.8,20.8-37.3,20.8c-19.8,0-39.3-12.6-39.3-39.9c0-23,13-47.9,38.7-47.9c26.7,0,37.5,22.8,37.5,33.1
	c0,4.4-1.2,4.4-2.4,4.4L423.8,466.7L423.8,466.7z M449.2,459.7c3.4,0,4.6,0.2,4.6-5.4c0-7.6-5.6-19.4-18.2-19.4
	c-12,0-16.4,11.8-16.4,21c0,3.2,0.4,3.8,1,3.8H449.2z"/>
<path id="XMLID_810_" class="st0" d="M493.9,393.5c0-11.8-13.2-5.4-13.2-11.2c0-3.4,3-2.6,15.8-7c15.4-4.4,14.8-8,18.2-8
	c2.6,0,0.4,5.6,0.4,16.8v114.4c0,14.2,14.8,11.4,14.8,15.8c0,2-0.8,2.6-4.2,2.6c-4,0-16.4-0.8-22.4-0.8c-4.6,0-13.6,0.8-17.8,0.8
	c-1.6,0-3.4,0-3.4-2c0-6.2,11.8,1.8,11.8-17L493.9,393.5z"/>
<path id="XMLID_808_" class="st0" d="M548.6,393.5c0-11.8-13.2-5.4-13.2-11.2c0-3.4,3-2.6,15.8-7c15.4-4.4,14.8-8,18.2-7.9
	c2.6,0,0.4,5.6,0.4,16.7v114.4c0,14.2,14.8,11.4,14.8,15.8c0,2-0.8,2.6-4.2,2.6c-4,0-16.4-0.8-22.4-0.8c-4.6,0-13.6,0.8-17.7,0.8
	c-1.6,0-3.4,0-3.4-2c0-6.2,11.8,1.8,11.8-17L548.6,393.5z"/>
<path id="XMLID_805_" class="st0" d="M628.5,517.1c-24.1,0-42.9-16.8-42.9-41.3c0-26.2,18.6-46.5,45.3-46.5
	c25,0,44.1,16.6,44.1,41.7C675,498.1,656.1,517.1,628.5,517.1z M606.8,464.3c-0.6,13.2,5.8,45.7,27.9,45.7
	c15.6,0,20.2-11.6,20.2-25.1c0-16-5.8-49.3-27.3-49.3C610.2,435.6,607.4,450,606.8,464.3z"/>
<path id="XMLID_801_" class="st0" d="M683,537.8c0-12,13-15.6,15-15.6c-2-1.8-8.6-6.2-8.6-18.4c0-8.2,3.6-14.2,10.6-19.2
	c-10.8-6.8-16.3-12-16.3-25.3c0-19.2,16-30.1,35.8-30.1c13.7,0,21.5,7,28.1,7c11.8,0,11.4-12.6,14.4-12.6c1.8,0,2.2,1.8,2.2,5.4
	c0,19-5.6,19.4-8.8,21.3c0.2,3.4,0,0.8,0.2,6c0.4,12.6-7.2,31.3-36.9,31.3c-3,0-6.2-0.4-10.2-0.4c-6,0-8.4,4-8.4,8.8
	c0,7.8,1.2,8.8,30.3,8.8c28,0,33.8,8.4,33.7,20.6c0,11.8-8.2,21-18.6,25c-11.8,4.6-18.2,5-30.8,5C706.7,555.4,683,553.6,683,537.8z
	 M707.1,524.1c-5.4,0-8,5.2-8,10c0,13.2,13.2,15.4,22.4,15.4c10.4,0,27-2.2,27-15.7C748.4,524.5,741.4,524.1,707.1,524.1z
	 M718.5,435c-3.6,0-15.6,1.6-15.6,23.4c0,10,4.2,24,16.4,24c12.8,0,16.4-11.6,16.4-22.4C735.7,448.8,731.9,435,718.5,435z"/>
<path id="XMLID_797_" class="st0" d="M771.3,537.8c0-12,13-15.6,15-15.6c-2-1.8-8.6-6.2-8.6-18.3c0-8.2,3.6-14.2,10.6-19.2
	c-10.8-6.8-16.4-12-16.4-25.4c0-19.1,16-30.1,35.7-30.1c13.8,0,21.6,7,28.1,7c11.8,0,11.4-12.6,14.4-12.5c1.8,0,2.2,1.8,2.2,5.4
	c0,19-5.6,19.4-8.8,21.4c0.2,3.4,0,0.8,0.2,6c0.4,12.6-7.2,31.3-36.9,31.3c-3,0-6.2-0.4-10.2-0.4c-6,0-8.4,4-8.4,8.8
	c0,7.8,1.2,8.8,30.3,8.8c28,0,33.7,8.4,33.7,20.6c0,11.8-8.2,21-18.6,25c-11.8,4.6-18.2,5-30.7,5C795,555.4,771.3,553.6,771.3,537.8
	z M795.4,524.1c-5.4,0-8,5.2-8,10c0,13.2,13.1,15.4,22.3,15.4c10.4,0,27-2.2,27-15.8C836.8,524.5,829.8,524.1,795.4,524.1z
	 M806.9,435.1c-3.6,0-15.6,1.6-15.6,23.4c0,10,4.2,23.9,16.4,23.9c12.8,0,16.4-11.6,16.4-22.3C824,448.9,820.2,435.1,806.9,435.1z"
	/>
<g id="XMLID_60_">
	<path id="XMLID_103_" class="st0" d="M264.1,550.4l1.7-2c2.5,2.3,5,3.4,8.3,3.4s5.4-1.7,5.4-4.1v-0.1c0-2.3-1.2-3.5-6.3-4.6
		c-5.6-1.2-8.2-3-8.2-7v-0.1c0-3.8,3.4-6.6,8-6.6c3.5,0,6.1,1,8.6,3l-1.6,2.1c-2.3-1.8-4.5-2.6-7-2.6c-3.2,0-5.2,1.7-5.2,3.9v0.1
		c0,2.3,1.3,3.6,6.6,4.7c5.4,1.2,7.9,3.2,7.9,6.9v0.1c0,4.2-3.5,6.9-8.3,6.9C270.2,554.3,267,553,264.1,550.4z"/>
	<path id="XMLID_101_" class="st0" d="M286.4,545L286.4,545c0-5.1,4-9.5,9.2-9.5c3.4,0,5.5,1.4,7.2,3.2l-1.8,1.9
		c-1.4-1.5-3-2.7-5.5-2.7c-3.7,0-6.4,3.1-6.4,7v0.1c0,3.9,2.9,7,6.6,7c2.3,0,4.1-1.1,5.5-2.7l1.7,1.6c-1.8,2-4,3.5-7.3,3.5
		C290.4,554.3,286.4,550.1,286.4,545z"/>
	<path id="XMLID_99_" class="st0" d="M307.4,528.5h2.7V539c1.2-1.9,3.1-3.5,6.2-3.5c4.3,0,6.9,2.9,6.9,7.2v11.2h-2.7v-10.5
		c0-3.3-1.8-5.4-5-5.4c-3.1,0-5.4,2.3-5.4,5.6v10.3h-2.7V528.5z"/>
	<path id="XMLID_96_" class="st0" d="M327.7,545L327.7,545c0-5.1,4-9.5,9.4-9.5c5.4,0,9.4,4.2,9.4,9.3v0.1c0,5.1-4,9.4-9.4,9.4
		C331.6,554.3,327.7,550.1,327.7,545z M343.7,545L343.7,545c0-3.9-2.9-7.1-6.7-7.1c-3.9,0-6.6,3.2-6.6,7v0.1c0,3.9,2.9,7,6.6,7
		C341,551.9,343.7,548.8,343.7,545z"/>
	<path id="XMLID_93_" class="st0" d="M350.2,545L350.2,545c0-5.1,4-9.5,9.4-9.5c5.4,0,9.4,4.2,9.4,9.3v0.1c0,5.1-4,9.4-9.4,9.4
		C354.1,554.3,350.2,550.1,350.2,545z M366.2,545L366.2,545c0-3.9-2.9-7.1-6.7-7.1c-3.9,0-6.6,3.2-6.6,7v0.1c0,3.9,2.9,7,6.6,7
		C363.5,551.9,366.2,548.8,366.2,545z"/>
	<path id="XMLID_91_" class="st0" d="M374,528.5h2.7v25.4H374V528.5z"/>
	<path id="XMLID_88_" class="st0" d="M392.2,545L392.2,545c0-5.1,4-9.5,9.4-9.5s9.4,4.2,9.4,9.3v0.1c0,5.1-4,9.4-9.4,9.4
		S392.2,550.1,392.2,545z M408.2,545L408.2,545c0-3.9-2.9-7.1-6.7-7.1c-3.9,0-6.6,3.2-6.6,7v0.1c0,3.9,2.9,7,6.6,7
		C405.5,551.9,408.2,548.8,408.2,545z"/>
	<path id="XMLID_86_" class="st0" d="M416.8,538.3h-2.5V536h2.5v-1.6c0-2.1,0.6-3.6,1.6-4.6c0.9-0.9,2.2-1.4,3.9-1.4
		c1.3,0,2.1,0.1,3,0.5v2.3c-1-0.3-1.7-0.5-2.6-0.5c-2.1,0-3.1,1.3-3.1,3.8v1.5h5.7v2.3h-5.7v15.6h-2.7L416.8,538.3L416.8,538.3z"/>
	<path id="XMLID_84_" class="st0" d="M439.5,529.6h2.8l8.9,13.3l8.9-13.3h2.8V554H460v-19.7l-8.9,13H451l-8.9-13V554h-2.7v-24.4
		H439.5z"/>
	<path id="XMLID_81_" class="st0" d="M467.8,548.7L467.8,548.7c0-3.9,3.1-5.9,7.7-5.9c2.3,0,3.9,0.3,5.5,0.8V543
		c0-3.2-2-4.9-5.4-4.9c-2.1,0-3.8,0.6-5.5,1.3l-0.8-2.2c2-0.9,3.9-1.5,6.5-1.5c2.5,0,4.5,0.7,5.8,2c1.2,1.2,1.8,3,1.8,5.3v11h-2.6
		v-2.7c-1.3,1.6-3.3,3.1-6.5,3.1C471.2,554.3,467.8,552.4,467.8,548.7z M481.1,547.3v-1.7c-1.3-0.4-3.1-0.8-5.3-0.8
		c-3.4,0-5.3,1.5-5.3,3.7v0.1c0,2.3,2.1,3.6,4.5,3.6C478.4,552.2,481.1,550.2,481.1,547.3z"/>
	<path id="XMLID_79_" class="st0" d="M489.3,535.9h2.7v3.1c1.2-1.9,3.1-3.5,6.2-3.5c4.3,0,6.9,2.9,6.9,7.2v11.2h-2.7v-10.5
		c0-3.3-1.8-5.4-5-5.4c-3.1,0-5.4,2.3-5.4,5.6v10.3h-2.7V535.9z"/>
	<path id="XMLID_76_" class="st0" d="M509.4,548.7L509.4,548.7c0-3.9,3.1-5.9,7.7-5.9c2.3,0,3.9,0.3,5.5,0.8V543
		c0-3.2-2-4.9-5.4-4.9c-2.1,0-3.8,0.6-5.5,1.3l-0.8-2.2c2-0.9,3.9-1.5,6.5-1.5c2.5,0,4.5,0.7,5.8,2c1.2,1.2,1.8,3,1.8,5.3v11h-2.6
		v-2.7c-1.3,1.6-3.3,3.1-6.5,3.1C512.8,554.3,509.4,552.4,509.4,548.7z M522.7,547.3v-1.7c-1.3-0.4-3.1-0.8-5.3-0.8
		c-3.4,0-5.3,1.5-5.3,3.7v0.1c0,2.3,2.1,3.6,4.5,3.6C520,552.2,522.7,550.2,522.7,547.3z"/>
	<path id="XMLID_73_" class="st0" d="M530.7,557.1l1.2-2.1c2.1,1.5,4.3,2.3,6.9,2.3c4,0,6.5-2.2,6.5-6.4v-2.1
		c-1.6,2.1-3.8,3.8-7.1,3.8c-4.3,0-8.5-3.2-8.5-8.4v-0.1c0-5.3,4.2-8.5,8.5-8.5c3.4,0,5.6,1.7,7,3.6V536h2.7v14.9
		c0,2.8-0.8,4.9-2.3,6.4c-1.6,1.6-4,2.4-6.9,2.4C535.9,559.6,533.1,558.7,530.7,557.1z M545.5,544.1L545.5,544.1
		c0-3.8-3.2-6.2-6.6-6.2c-3.4,0-6.2,2.4-6.2,6.1v0.1c0,3.6,2.9,6.1,6.2,6.1C542.3,550.2,545.5,547.7,545.5,544.1z"/>
	<path id="XMLID_70_" class="st0" d="M552.9,545L552.9,545c0-5.3,3.7-9.4,8.6-9.4c5.3,0,8.4,4.2,8.4,9.5c0,0.3,0,0.6,0,0.9h-14.3
		c0.4,3.9,3.1,6.1,6.3,6.1c2.5,0,4.2-1,5.7-2.5l1.7,1.5c-1.8,2-4,3.4-7.4,3.4C556.9,554.3,552.9,550.5,552.9,545z M567.2,543.9
		c-0.3-3.3-2.2-6.1-5.7-6.1c-3.1,0-5.5,2.6-5.8,6.1H567.2z"/>
	<path id="XMLID_68_" class="st0" d="M574.6,535.9h2.7v3c1.2-1.8,2.8-3.4,5.8-3.4c2.9,0,4.8,1.6,5.8,3.6c1.3-2,3.2-3.6,6.3-3.6
		c4.1,0,6.7,2.8,6.7,7.2v11.1h-2.7v-10.4c0-3.5-1.7-5.4-4.7-5.4c-2.7,0-4.9,2-4.9,5.6V554h-2.7v-10.6c0-3.4-1.8-5.4-4.6-5.4
		c-2.8,0-5,2.4-5,5.7V554h-2.7V535.9L574.6,535.9z"/>
	<path id="XMLID_65_" class="st0" d="M606.6,545L606.6,545c0-5.3,3.7-9.4,8.6-9.4c5.3,0,8.4,4.2,8.4,9.5c0,0.3,0,0.6,0,0.9h-14.3
		c0.4,3.9,3.1,6.1,6.3,6.1c2.5,0,4.2-1,5.7-2.5l1.7,1.5c-1.8,2-4,3.4-7.4,3.4C610.6,554.3,606.6,550.5,606.6,545z M620.9,543.9
		c-0.3-3.3-2.2-6.1-5.7-6.1c-3.1,0-5.5,2.6-5.8,6.1H620.9z"/>
	<path id="XMLID_63_" class="st0" d="M628.3,535.9h2.7v3.1c1.2-1.9,3.1-3.5,6.2-3.5c4.3,0,6.9,2.9,6.9,7.2v11.2h-2.7v-10.5
		c0-3.3-1.8-5.4-5-5.4c-3.1,0-5.4,2.3-5.4,5.6v10.3h-2.7L628.3,535.9L628.3,535.9z"/>
	<path id="XMLID_61_" class="st0" d="M650.6,549.2v-10.9h-2.5v-2.4h2.5v-5.4h2.7v5.4h5.7v2.4h-5.7v10.5c0,2.2,1.2,3,3,3
		c0.9,0,1.7-0.2,2.6-0.6v2.3c-0.9,0.5-1.9,0.8-3.2,0.8C652.8,554.2,650.6,552.8,650.6,549.2z"/>
</g>
</svg>
